# xmcd CD database file
#
# Track frame offsets:
#	150
#	8882
#	20685
#	32430
#	46082
#	57864
#	78322
#	89606
#	102208
#	119607
#	131684
#	144744
#	156647
#
# Disc length: 2230 seconds
#
# Revision: 0
# Processed by: cddbd v1.4PL0 Copyright (c) Steve Scherf et al.
# Submitted via: CDex 1.51
#
DISCID=ad08b40d
DTITLE=Hammerdown Turpentine - Ain't No Grave
DYEAR=2003
DGENRE=Country
TTITLE0=Ain't no Grave
TTITLE1=Sixty-Five
TTITLE2=Fare Ye Well
TTITLE3=I Been in Jail
TTITLE4=Keep No Secret
TTITLE5=House of the Seven Gables
TTITLE6=Give and Take
TTITLE7=Have You Heard Me, Lord?
TTITLE8=Rope Burn
TTITLE9=Graveyard Swamp
TTITLE10=Horrible
TTITLE11=Guarantee
TTITLE12=I'm Ashamed
EXTD=YEAR: 2003
EXTT0=
EXTT1=
EXTT2=
EXTT3=
EXTT4=
EXTT5=
EXTT6=
EXTT7=
EXTT8=
EXTT9=
EXTT10=
EXTT11=
EXTT12=
PLAYORDER=
